<svg width="16" height="14" viewBox="0 0 16 14" fill="none" xmlns="http://www.w3.org/2000/svg">
<g clip-path="url(#clip0_865_458)">
<path d="M16 3.99086V12.4168C15.9933 12.4297 15.9841 12.4422 15.98 12.4562C15.7679 13.1993 15.3003 13.5383 14.4845 13.5383C10.1628 13.5383 5.84141 13.5383 1.51963 13.5375C1.38479 13.5375 1.24702 13.5368 1.11551 13.5118C0.436686 13.3815 0.000417482 12.8592 0 12.1831C0 8.57598 0 4.96843 0 1.36127C0 1.31758 0 1.2735 0.00208741 1.22981C0.0325636 0.579527 0.602844 0.0408128 1.29628 0.00726505C1.35348 0.00453443 1.41067 0.00219389 1.46787 0.00219389C2.98834 0.00219389 4.50881 0.00414434 6.02928 -0.000146653C6.26724 -0.000926833 6.44217 0.0751407 6.55405 0.273306C6.58578 0.329089 6.63045 0.379021 6.65717 0.436754C6.71061 0.551831 6.79786 0.578357 6.92811 0.577967C9.0005 0.573676 11.0725 0.575626 13.1448 0.574456C13.4713 0.574456 13.7748 0.639601 14.0403 0.824113C14.4328 1.0964 14.6148 1.46815 14.6173 1.92027C14.6194 2.23585 14.6173 2.55182 14.6173 2.87443C14.6674 2.87911 14.7025 2.88106 14.7371 2.88574C15.3224 2.9583 15.7207 3.25203 15.9278 3.77007C15.9566 3.84185 15.9758 3.91714 15.9992 3.99086H16ZM7.99436 12.6778C10.1553 12.6778 12.3161 12.6778 14.477 12.6778C14.9175 12.6778 15.0757 12.5284 15.0757 12.1133C15.0757 10.0755 15.0757 8.03766 15.0757 6.00022C15.0757 5.41508 15.0744 4.83034 15.0765 4.2452C15.0769 4.0919 15.0548 3.93586 14.9095 3.85706C14.791 3.7927 14.6394 3.75174 14.5021 3.75135C12.3829 3.74511 10.2634 3.74394 8.14424 3.75018C7.86411 3.75096 7.67791 3.66202 7.53179 3.43381C7.00827 2.61463 6.46847 1.8048 5.94035 0.987951C5.87856 0.891989 5.81302 0.859221 5.69362 0.859612C4.29798 0.863903 2.90275 0.862342 1.50711 0.862342C1.08712 0.862342 0.92347 1.01604 0.92347 1.41159C0.92347 4.98481 0.92347 8.55843 0.92347 12.1316C0.92347 12.5249 1.08796 12.6778 1.51045 12.6778C3.67134 12.6778 5.83222 12.6778 7.99311 12.6778H7.99436ZM13.6738 2.87989C13.6826 2.8518 13.688 2.84283 13.688 2.83347C13.6892 2.54129 13.6905 2.24872 13.6901 1.95654C13.6901 1.59961 13.521 1.4428 13.1373 1.4428C11.2637 1.4428 9.39001 1.4428 7.51635 1.4428C7.46124 1.4428 7.40613 1.4428 7.32806 1.4428C7.36397 1.50521 7.38568 1.54734 7.41156 1.58713C7.66664 1.97761 7.92548 2.36575 8.17513 2.75896C8.23275 2.84985 8.29453 2.88223 8.40809 2.88223C10.1097 2.87833 11.8118 2.8795 13.5135 2.8795H13.673L13.6738 2.87989Z" fill="#282C38"/>
</g>
<defs>
<clipPath id="clip0_865_458">
<rect width="16" height="13.5385" fill="white"/>
</clipPath>
</defs>
</svg>
