<svg width="12" height="12" viewBox="0 0 12 12" fill="none" xmlns="http://www.w3.org/2000/svg">
<path d="M6 0C2.6865 0 0 2.6865 0 6C0 9.3135 2.6865 12 6 12C9.3135 12 12 9.3135 12 6C12 2.6865 9.3135 0 6 0ZM8.3535 7.6465C8.549 7.842 8.549 8.158 8.3535 8.3535C8.256 8.451 8.128 8.5 8 8.5C7.872 8.5 7.744 8.451 7.6465 8.3535L6 6.707L4.3535 8.3535C4.256 8.451 4.128 8.5 4 8.5C3.872 8.5 3.744 8.451 3.6465 8.3535C3.451 8.158 3.451 7.842 3.6465 7.6465L5.293 6L3.6465 4.3535C3.451 4.158 3.451 3.842 3.6465 3.6465C3.842 3.451 4.158 3.451 4.3535 3.6465L6 5.293L7.6465 3.6465C7.842 3.451 8.158 3.451 8.3535 3.6465C8.549 3.842 8.549 4.158 8.3535 4.3535L6.707 6L8.3535 7.6465Z" fill="#9899A3"/>
</svg>
