<svg width="19" height="19" viewBox="0 0 19 19" fill="none" xmlns="http://www.w3.org/2000/svg">
<path d="M10.296 12.0533C9.94717 11.8386 9.67998 11.5843 9.55543 11.2429C9.41907 10.6671 9.43459 10.1116 9.52328 9.71065C9.78161 9.59498 10.2517 8.68215 10.3308 7.9312C10.5359 7.9142 10.8593 7.7102 10.9542 6.90528C11.0052 6.47326 10.8023 6.23009 10.6789 6.15359C11.0126 5.131 11.5755 1.90617 9.39615 1.64083C9.15852 1.21509 8.54948 1 7.75861 1C4.59365 1.05913 4.17493 3.4613 4.90557 6.15322C4.7825 6.22972 4.57924 6.47289 4.63024 6.90491C4.72522 7.70983 5.04859 7.91383 5.2537 7.93083C5.33241 8.68178 5.81839 9.57059 6.08004 9.71028C6.1717 10.3814 6.15617 10.6822 6.04752 11.2425C5.42111 12.9573 1.19513 12.4757 1 15.7826H10.0691" stroke="#282C38" stroke-miterlimit="10" stroke-linecap="round"/>
<path d="M13.8173 9.79935C13.7138 9.32261 13.7294 8.8662 13.8029 8.53322C14.0265 8.43307 14.433 7.64367 14.5014 6.99435C14.6788 6.97956 14.9585 6.80328 15.0406 6.10702C15.0846 5.73339 14.9094 5.52311 14.8022 5.45696C15.0908 4.57259 15.5776 1.78348 13.6928 1.55398C13.4873 1.18589 12.9607 1 12.2766 1C11.2503 1.01922 10.5578 1.32337 10.1265 1.81859M13.9348 9.86957C11.6897 9.86957 9.86963 11.6897 9.86963 13.9348C9.86963 16.1799 11.6897 18 13.9348 18C16.18 18 18.0001 16.1799 18.0001 13.9348C18.0001 11.6897 16.18 9.86957 13.9348 9.86957Z" stroke="#282C38" stroke-miterlimit="10" stroke-linecap="round"/>
<path d="M13.9349 11.7174V16.1522M16.1523 13.9348H11.7175" stroke="#282C38" stroke-miterlimit="10"/>
</svg>
