<svg width="13" height="13" viewBox="0 0 13 13" fill="none" xmlns="http://www.w3.org/2000/svg">
<path d="M13.0005 2.43262C12.988 3.19554 12.7493 3.79191 12.2651 4.2791C11.2481 5.30185 10.2228 6.31631 9.20305 7.3363C7.6264 8.9112 6.05181 10.4889 4.47308 12.0617C4.4032 12.1308 4.30358 12.1895 4.20811 12.211C3.01472 12.4742 1.81925 12.7306 0.62448 12.987C0.235676 13.0706 -0.0708001 12.7417 0.0142938 12.3533C0.273035 11.1758 0.521398 9.99614 0.781523 8.8186C0.805045 8.71356 0.862466 8.60022 0.937874 8.52421C3.01679 6.44208 5.09917 4.36479 7.18225 2.28681C7.74262 1.72775 8.27601 1.13898 8.87167 0.620691C10.3356 -0.654293 12.5833 0.140412 12.9541 2.04356C12.9839 2.19628 12.9908 2.35315 12.9998 2.43331L13.0005 2.43262ZM7.6596 3.23078C7.6596 3.23078 7.63954 3.2446 7.6257 3.25842C5.68446 5.1975 3.74321 7.13658 1.80403 9.07774C1.75976 9.12197 1.72724 9.189 1.71341 9.25119C1.63177 9.6057 1.55636 9.96159 1.47957 10.3168C1.37165 10.8178 1.26511 11.3195 1.1558 11.8288C1.18901 11.8288 1.20976 11.8323 1.22844 11.8288C2.05724 11.6519 2.88742 11.4764 3.71484 11.2919C3.80893 11.2711 3.90509 11.2089 3.97427 11.1405C5.87401 9.24843 7.77029 7.35288 9.66865 5.45941C9.70877 5.41933 9.76204 5.39238 9.79802 5.3675C9.06815 4.63844 8.36595 3.93703 7.6596 3.23147V3.23078ZM10.5078 4.58178C10.8655 4.2328 11.2398 3.88106 11.5995 3.51411C12.31 2.7892 12.0333 1.49418 11.0855 1.12654C10.4788 0.890891 9.9177 0.987638 9.4445 1.44926C9.09167 1.7934 8.75199 2.15067 8.41715 2.49067C9.11658 3.19001 9.8167 3.89004 10.5078 4.58109V4.58178Z" fill="black"/>
</svg>
