<svg width="16" height="16" viewBox="0 0 16 16" fill="none" xmlns="http://www.w3.org/2000/svg">
<path fill-rule="evenodd" clip-rule="evenodd" d="M8.67888 8.90872L8.80574 3.20007H7.26821L7.39507 8.90872H8.67888ZM7.19971 11.4503C7.19971 11.9204 7.51368 12.2001 8.03888 12.2001C8.56027 12.2001 8.87361 11.9204 8.87361 11.4503C8.87361 10.9714 8.56027 10.6917 8.03888 10.6917C7.51305 10.6917 7.19971 10.9714 7.19971 11.4503Z" fill="#FA3945"/>
<path d="M8.80574 3.20007L8.90572 3.20229L8.90799 3.10007H8.80574V3.20007ZM8.67888 8.90872V9.00872H8.77668L8.77886 8.91094L8.67888 8.90872ZM7.26821 3.20007V3.10007H7.16596L7.16824 3.20229L7.26821 3.20007ZM7.39507 8.90872L7.29509 8.91094L7.29727 9.00872H7.39507V8.90872ZM8.70576 3.19785L8.57891 8.9065L8.77886 8.91094L8.90572 3.20229L8.70576 3.19785ZM7.26821 3.30007H8.80574V3.10007H7.26821V3.30007ZM7.49504 8.9065L7.36819 3.19785L7.16824 3.20229L7.29509 8.91094L7.49504 8.9065ZM8.67888 8.80872H7.39507V9.00872H8.67888V8.80872ZM8.03888 12.1001C7.79322 12.1001 7.60977 12.0347 7.48894 11.9269C7.3696 11.8203 7.29971 11.662 7.29971 11.4503H7.09971C7.09971 11.7087 7.1868 11.9252 7.35575 12.0761C7.5232 12.2256 7.75934 12.3001 8.03888 12.3001V12.1001ZM8.77361 11.4503C8.77361 11.6621 8.70382 11.8205 8.58501 11.927C8.46477 12.0348 8.28246 12.1001 8.03888 12.1001V12.3001C8.31668 12.3001 8.55175 12.2255 8.71853 12.0759C8.88673 11.9251 8.97361 11.7086 8.97361 11.4503H8.77361ZM8.03888 10.7917C8.28247 10.7917 8.46456 10.857 8.58469 10.9656C8.70346 11.073 8.77361 11.2336 8.77361 11.4503H8.97361C8.97361 11.1882 8.88709 10.9694 8.71884 10.8173C8.55195 10.6663 8.31668 10.5917 8.03888 10.5917V10.7917ZM7.29971 11.4503C7.29971 11.2336 7.36984 11.0731 7.48904 10.9657C7.60966 10.8571 7.79287 10.7917 8.03888 10.7917V10.5917C7.75906 10.5917 7.52268 10.6662 7.35517 10.8172C7.18624 10.9693 7.09971 11.1881 7.09971 11.4503H7.29971Z" fill="#FA3945"/>
<circle cx="8" cy="8" r="7.5" stroke="#FA3945"/>
</svg>
