<svg width="31" height="28" viewBox="0 0 31 28" fill="none" xmlns="http://www.w3.org/2000/svg">
<g clip-path="url(#clip0_714_2605)">
<path d="M31.0004 22.9708C30.8165 23.5978 30.7181 24.2667 30.4326 24.8446C29.4043 26.9287 27.6698 27.981 25.3285 27.9897C21.024 28.0071 16.7194 27.9945 12.4157 27.9945C10.1679 27.9945 7.9201 27.9976 5.67229 27.9937C3.90906 27.9905 2.40732 27.3762 1.3054 25.9981C-0.0891872 24.2548 -0.414644 22.2956 0.572123 20.2874C1.39736 18.6082 2.41611 17.0206 3.3613 15.399C5.78983 11.2324 8.22876 7.07213 10.6557 2.90475C11.5409 1.38516 12.8156 0.426926 14.5732 0.087748C16.5659 -0.297287 18.9177 0.602445 19.986 2.30545C21.1319 4.13259 22.1962 6.00953 23.2854 7.87067C25.5252 11.6965 27.7514 15.5302 29.9984 19.3521C30.4998 20.2052 30.87 21.0939 31.002 22.0735V22.9708H31.0004ZM15.4808 25.5269C18.7362 25.5269 21.9907 25.5388 25.2461 25.5143C25.7371 25.5103 26.2649 25.4265 26.7103 25.2328C28.3775 24.5054 28.9725 22.5723 28.0537 20.9784C27.0469 19.232 26.0234 17.4942 25.007 15.7532C22.7472 11.8831 20.4858 8.01377 18.23 4.14128C17.8461 3.4819 17.348 2.96088 16.6179 2.67942C15.34 2.18686 13.7048 2.58692 12.8283 4.10413C10.2519 8.56404 7.63782 13.0018 5.04056 17.4499C4.30569 18.7086 3.54522 19.953 2.85672 21.2362C2.32335 22.2292 2.42491 23.2444 3.04144 24.1868C3.66517 25.1395 4.59356 25.5293 5.71707 25.5293C8.97244 25.5277 12.227 25.5293 15.4824 25.5293L15.4808 25.5269Z" fill="#008D8D"/>
<path d="M17.0849 10.5573C16.9642 12.609 16.8419 14.6954 16.7195 16.7819C16.7027 17.0697 16.7155 17.3614 16.6675 17.6437C16.5716 18.205 16.0854 18.5932 15.5192 18.598C14.9347 18.6027 14.4261 18.2193 14.3597 17.6326C14.2686 16.823 14.2406 16.0055 14.1894 15.192C14.0911 13.6321 14.0047 12.0721 13.8959 10.513C13.816 9.36742 14.6476 8.48034 15.7111 8.60525C16.4444 8.69143 17.0234 9.28282 17.0833 10.0149C17.0969 10.1826 17.0857 10.3533 17.0857 10.5573H17.0849Z" fill="#008D8D"/>
<path d="M15.4816 22.8127C14.602 22.7905 13.9127 22.0711 13.9351 21.1998C13.9567 20.3538 14.6892 19.6636 15.5488 19.6802C16.4236 19.6968 17.0993 20.4203 17.0713 21.3105C17.0449 22.158 16.3301 22.834 15.4824 22.8127H15.4816Z" fill="#008D8D"/>
</g>
<defs>
<clipPath id="clip0_714_2605">
<rect width="31" height="28" fill="white"/>
</clipPath>
</defs>
</svg>
