<svg width="20" height="20" viewBox="0 0 20 20" fill="none" xmlns="http://www.w3.org/2000/svg">
<path d="M13.1516 9.25625L13.7516 8.65836C15.0641 9.4431 16.3766 9.59257 17.3891 8.58362C18.3266 7.6494 19.3391 5.44465 18.8891 4.09937L16.9016 6.07991C16.6391 6.34149 16.1891 6.34149 15.8891 6.07991L13.9016 4.09937C13.6391 3.83779 13.6391 3.38937 13.9016 3.09042L15.8891 1.10987C14.5766 0.661449 12.3266 1.6704 11.3891 2.60462C10.3766 3.61358 10.4891 4.95885 11.3141 6.22939L10.2641 7.27571M7.30156 10.3026L5.38906 12.2084C5.08906 12.1336 4.78906 12.0963 4.48906 12.0963C2.57656 12.0963 1.03906 13.6284 1.03906 15.5342C1.03906 17.44 2.57656 18.9721 4.48906 18.9721C6.40156 18.9721 7.93906 17.44 7.93906 15.5342C7.93906 15.1979 7.90156 14.8989 7.78906 14.6L9.21406 13.18M5.80156 16.8047L4.00156 17.2905L2.68906 15.9826L3.17656 14.2263L4.93906 13.7405L6.25156 15.0484L5.80156 16.8047Z" stroke="black" stroke-miterlimit="10" stroke-linecap="round" stroke-linejoin="round"/>
<path d="M10 9.06943L4.525 3.6136L4.675 2.60464L1.9375 1.03516L1 1.96937L2.575 4.69729L3.5875 4.54782L9.0625 10.0036M18.4375 15.609L13.8625 11.05C13.525 10.7137 13.0375 10.6015 12.5875 10.6763L11.725 9.81681C11.95 9.55523 11.95 9.14417 11.6875 8.88259L11.425 8.62101C11.1625 8.35943 10.7125 8.35943 10.45 8.62101L8.6125 10.4521C8.35 10.7137 8.35 11.1621 8.6125 11.4237L8.875 11.6852C9.1375 11.9468 9.55 11.9468 9.8125 11.7226L10.675 12.5821C10.5625 13.0305 10.7125 13.5163 11.05 13.8526L15.625 18.4116C16.4125 19.1964 17.65 19.1964 18.4375 18.4116C19.1875 17.6269 19.1875 16.3563 18.4375 15.609Z" stroke="black" stroke-miterlimit="10" stroke-linejoin="round"/>
</svg>
